<?xml version="1.0" encoding="UTF-8" standalone="no"?>
<!-- Created with Inkscape (http://www.inkscape.org/) -->

<svg
   width="287"
   height="96"
   viewBox="0 0 287 96"
   version="1.1"
   id="svg1"
   inkscape:version="1.3.1 (9b9bdc1480, 2023-11-25, custom)"
   sodipodi:docname="logo.svg"
   xml:space="preserve"
   xmlns:inkscape="http://www.inkscape.org/namespaces/inkscape"
   xmlns:sodipodi="http://sodipodi.sourceforge.net/DTD/sodipodi-0.dtd"
   xmlns:xlink="http://www.w3.org/1999/xlink"
   xmlns="http://www.w3.org/2000/svg"
   xmlns:svg="http://www.w3.org/2000/svg"><sodipodi:namedview
     id="namedview1"
     pagecolor="#ffffff"
     bordercolor="#000000"
     borderopacity="0.25"
     inkscape:showpageshadow="2"
     inkscape:pageopacity="0.0"
     inkscape:pagecheckerboard="false"
     inkscape:deskcolor="#d1d1d1"
     inkscape:document-units="px"
     showgrid="true"
     inkscape:zoom="6.8900457"
     inkscape:cx="148.18479"
     inkscape:cy="49.9271"
     inkscape:window-width="1848"
     inkscape:window-height="1016"
     inkscape:window-x="72"
     inkscape:window-y="27"
     inkscape:window-maximized="1"
     inkscape:current-layer="layer1"><inkscape:grid
       id="grid4"
       units="px"
       originx="0"
       originy="0"
       spacingx="1"
       spacingy="1"
       empcolor="#0099e5"
       empopacity="0.30196078"
       color="#0099e5"
       opacity="0.14901961"
       empspacing="5"
       dotted="false"
       gridanglex="30"
       gridanglez="30"
       visible="true"
       snapvisiblegridlinesonly="true" /></sodipodi:namedview><defs
     id="defs1"><linearGradient
       id="linearGradient7"
       inkscape:collect="always"><stop
         style="stop-color:#389826;stop-opacity:0.90064424;"
         offset="0"
         id="stop7" /><stop
         style="stop-color:#ffffff;stop-opacity:0.50165963;"
         offset="1"
         id="stop8" /></linearGradient><rect
       x="100"
       y="215"
       width="80"
       height="35"
       id="rect4" /><inkscape:path-effect
       effect="powerclip"
       id="path-effect408"
       is_visible="true"
       lpeversion="1"
       inverse="true"
       flatten="false"
       hide_clip="false"
       message="Use fill-rule evenodd on &lt;b&gt;fill and stroke&lt;/b&gt; dialog if no flatten result after convert clip to paths." /><linearGradient
       id="swatch405"
       inkscape:swatch="solid"><stop
         style="stop-color:#e6e6e6;stop-opacity:1;"
         offset="0"
         id="stop406" /></linearGradient><linearGradient
       id="swatch404"
       inkscape:swatch="solid"><stop
         style="stop-color:#e6e6e6;stop-opacity:1;"
         offset="0"
         id="stop405" /></linearGradient><linearGradient
       id="linearGradient402"
       inkscape:collect="always"><stop
         style="stop-color:#393939;stop-opacity:0.78851187;"
         offset="0"
         id="stop403" /><stop
         style="stop-color:#ffffff;stop-opacity:0;"
         offset="1"
         id="stop404" /></linearGradient><linearGradient
       id="linearGradient3"
       inkscape:collect="always"><stop
         style="stop-color:#404040;stop-opacity:1;"
         offset="0"
         id="stop3" /><stop
         style="stop-color:#ffffff;stop-opacity:0;"
         offset="1"
         id="stop4" /></linearGradient><radialGradient
       inkscape:collect="always"
       xlink:href="#linearGradient3"
       id="radialGradient4"
       cx="247.06744"
       cy="258.64301"
       fx="247.06744"
       fy="258.64301"
       r="34.326363"
       gradientTransform="matrix(0.3983702,0,0,11.732539,32.785203,-2988.9629)"
       gradientUnits="userSpaceOnUse" /><radialGradient
       inkscape:collect="always"
       xlink:href="#linearGradient402"
       id="radialGradient404"
       cx="249.19446"
       cy="373.69785"
       fx="249.19446"
       fy="373.69785"
       r="34.999985"
       gradientTransform="matrix(0.32504137,0.13204792,-0.24923306,0.61349742,143.24211,-173.64532)"
       gradientUnits="userSpaceOnUse" /><filter
       id="mask-powermask-path-effect407_inverse"
       inkscape:label="filtermask-powermask-path-effect407"
       style="color-interpolation-filters:sRGB"
       height="100"
       width="100"
       x="-50"
       y="-50"><feColorMatrix
         id="mask-powermask-path-effect407_primitive1"
         values="1"
         type="saturate"
         result="fbSourceGraphic" /><feColorMatrix
         id="mask-powermask-path-effect407_primitive2"
         values="-1 0 0 0 1 0 -1 0 0 1 0 0 -1 0 1 0 0 0 1 0 "
         in="fbSourceGraphic" /></filter><clipPath
       clipPathUnits="userSpaceOnUse"
       id="clipPath407"><circle
         style="display:none;fill:#e5e5e5;fill-opacity:0.248474;stroke:#bfbfbf;stroke-width:3;stroke-linecap:round;stroke-linejoin:round;stroke-dasharray:none;stroke-opacity:1"
         id="circle408"
         cy="230"
         cx="140"
         r="50"
         d="m 190,230 a 50,50 0 0 1 -50,50 50,50 0 0 1 -50,-50 50,50 0 0 1 50,-50 50,50 0 0 1 50,50 z" /><path
         id="lpe_path-effect408"
         style="fill:#e5e5e5;fill-opacity:0.248474;stroke:#bfbfbf;stroke-width:3;stroke-linecap:round;stroke-linejoin:round;stroke-dasharray:none;stroke-opacity:1"
         class="powerclip"
         d="m 130.0628,224.21005 h 39.8744 v 136.5799 H 130.0628 Z M 190,230 a 50,50 0 0 0 -50,-50 50,50 0 0 0 -50,50 50,50 0 0 0 50,50 50,50 0 0 0 50,-50 z" /></clipPath><radialGradient
       inkscape:collect="always"
       xlink:href="#linearGradient7"
       id="radialGradient8"
       cx="296.69229"
       cy="380.02908"
       fx="296.69229"
       fy="380.02908"
       r="58"
       gradientUnits="userSpaceOnUse"
       gradientTransform="matrix(0.91943227,-0.1838864,0.16504308,0.82521558,-181.83177,-171.42815)" /></defs><g
     inkscape:label="Layer 1"
     inkscape:groupmode="layer"
     id="layer1"><g
       id="g1"
       transform="matrix(0.9829684,0,0,0.9829684,16.377427,0)"><rect
         style="fill:#0065bd;fill-opacity:1;stroke-width:0.352316"
         id="rect1"
         width="138.65038"
         height="95.988724"
         x="60"
         y="1.9317881e-14"
         ry="4.1078882" /><rect
         style="fill:#e6e6e6;fill-opacity:1;stroke-width:0.358449"
         id="rect2"
         width="129.76253"
         height="88.878456"
         x="63.555141"
         y="3.5551431"
         ry="0" /><rect
         style="fill:#fefefe;fill-opacity:1;stroke-width:0.355515"
         id="rect5"
         width="127.98496"
         height="88.878456"
         x="67.110268"
         y="1.9317881e-14" /><rect
         style="fill:url(#radialGradient4);stroke-width:0.428189"
         id="rect3"
         width="24.885956"
         height="88.878456"
         x="118.65977"
         y="1.9317881e-14" /><path
         style="fill:#e6e6e6;fill-opacity:1;stroke-width:0.355515"
         d="M 63.555135,3.5551455 67.110274,6.7443983e-6 V 3.5551455 Z"
         id="path5" /><path
         style="fill:#e6e6e6;fill-opacity:1;stroke-width:0.355515"
         d="m 193.31767,92.433595 1.77757,-3.555139 h -1.77757 z"
         id="path6" /><rect
         style="fill:url(#radialGradient404);fill-opacity:1;stroke-width:0.0856375"
         id="rect7"
         width="24.885956"
         height="3.5551381"
         x="118.65977"
         y="88.878471" /><g
         id="g408"
         transform="matrix(0.35551382,0,0,0.35551382,42.224302,-42.661649)"><path
           style="fill:#3f3f3f;fill-opacity:1;stroke:#404040;stroke-width:10;stroke-linecap:round;stroke-linejoin:round;stroke-dasharray:none;stroke-opacity:1"
           d="m 140,230 20,125 z"
           id="path406"
           clip-path="url(#clipPath407)"
           inkscape:path-effect="#path-effect408"
           inkscape:original-d="m 140,230 20,125 z" /><circle
           style="fill:#e5e5e5;fill-opacity:0.248474;stroke:#bfbfbf;stroke-width:3;stroke-linecap:round;stroke-linejoin:round;stroke-dasharray:none;stroke-opacity:1"
           id="circle407"
           cy="230"
           cx="140"
           r="50" /></g><path
         d="m 81.036094,35.038501 3.969811,8.659791 h -2.124767 l -1.059404,-2.315229 h -3.291322 l -1.112974,2.315229 h -1.416519 l 4.136474,-8.659791 z m -2.118817,5.552981 h 2.553303 l -1.255816,-2.737795 z m 8.58241,-1.136784 q 0,0.82134 0.249983,1.452228 0.249964,0.630889 0.660639,1.059414 0.416625,0.428526 0.952282,0.648738 0.541607,0.220203 1.118924,0.220203 0.446376,0 0.827291,-0.154732 0.386865,-0.154752 0.720169,-0.410675 0.339245,-0.261873 0.630878,-0.601118 0.291634,-0.345214 0.559458,-0.726119 l 0.868961,0.636838 q -0.279734,0.452336 -0.678499,0.868951 -0.392815,0.416626 -0.886811,0.73802 -0.493987,0.321394 -1.077264,0.511846 -0.583268,0.190453 -1.232006,0.190453 -1.095124,0 -2.017646,-0.315434 -0.916562,-0.321404 -1.58911,-0.904672 -0.666599,-0.583267 -1.041554,-1.398658 -0.374975,-0.81539 -0.374975,-1.815283 0,-0.642789 0.160703,-1.220106 0.160702,-0.583267 0.458285,-1.077264 0.303544,-0.493996 0.73801,-0.886811 0.434486,-0.398765 0.976092,-0.678499 0.547557,-0.279733 1.196296,-0.428525 0.648748,-0.148792 1.374857,-0.148792 0.73206,0 1.339148,0.172602 0.613018,0.166642 1.107014,0.476136 0.499956,0.303544 0.886821,0.726109 0.392815,0.422586 0.690399,0.922522 l -0.880861,0.613028 q -0.267824,-0.380905 -0.583268,-0.714209 -0.309494,-0.339244 -0.666598,-0.589218 -0.357105,-0.255933 -0.74992,-0.404725 -0.392815,-0.148792 -0.82133,-0.148792 -0.583278,0 -1.112985,0.220213 -0.529706,0.220223 -0.934422,0.648738 -0.398765,0.428536 -0.636838,1.059414 -0.232123,0.630898 -0.232123,1.458179 z m 8.159855,-1.797423 1.934305,-0.535657 v 6.576674 h -1.934305 z m -0.08326,-2.386651 q 0,-0.196402 0.07742,-0.369005 0.08326,-0.172602 0.226163,-0.297584 0.142852,-0.130941 0.333304,-0.202362 0.190452,-0.07742 0.404705,-0.07742 0.214263,0 0.404725,0.07742 0.190453,0.07138 0.333305,0.202362 0.142831,0.124982 0.226163,0.297584 0.08326,0.172603 0.08326,0.369005 0,0.196413 -0.08326,0.369005 -0.08326,0.172602 -0.226163,0.297594 -0.142852,0.124991 -0.333305,0.202362 -0.190462,0.07138 -0.404725,0.07138 -0.214253,0 -0.404705,-0.07138 -0.190452,-0.07742 -0.333304,-0.202362 -0.142832,-0.124992 -0.226163,-0.297594 -0.07742,-0.172592 -0.07742,-0.369005 z m 3.934111,-0.04762 h 3.077057 q 1.18439,0 2.17833,0.279734 0.99395,0.273794 1.70816,0.80944 0.72015,0.529707 1.11892,1.303427 0.39877,0.77373 0.39877,1.767683 0,0.892751 -0.33924,1.684342 -0.33331,0.78563 -0.98205,1.368897 -0.64873,0.583258 -1.59506,0.922522 -0.94037,0.339244 -2.16049,0.339244 h -3.404397 z m 2.077157,7.606328 h 1.10703 q 0.61302,0 1.15464,-0.226153 0.54161,-0.226173 0.94632,-0.660648 0.40472,-0.440436 0.63684,-1.077264 0.23807,-0.636838 0.23807,-1.464139 0,-0.714199 -0.22022,-1.321287 -0.22021,-0.607068 -0.61898,-1.053453 -0.39282,-0.446376 -0.94037,-0.696349 -0.54755,-0.249984 -1.1963,-0.249984 h -1.10703 z"
         id="text1"
         style="font-family:'Tamil MN';-inkscape-font-specification:'Tamil MN';white-space:pre;fill:#3f3f3f;stroke-width:1.01576;stroke-linecap:round;stroke-linejoin:round"
         aria-label="ACiD" /><circle
         style="fill:#4063d8;fill-opacity:1;stroke:none;stroke-width:0.355515;stroke-linecap:round;stroke-linejoin:round;stroke-dasharray:none;stroke-opacity:1"
         id="path4"
         cx="96.61792"
         cy="35.195873"
         r="1.0665414" /><path
         id="path7"
         style="fill:url(#radialGradient8);stroke:#bfbfbf;stroke-width:0.533271;stroke-linecap:round;stroke-linejoin:round;stroke-dasharray:none;stroke-opacity:1"
         d="m 165.05432,57.045909 c 1.33073,0.272304 2.46798,0.555803 3.6908,1.073016 2.44566,1.034425 4.6481,2.531254 6.49775,4.380899 3.69928,3.69943 5.98733,8.809942 5.98733,14.454863 0,11.28982 -9.15221,20.442041 -20.44205,20.442041 -11.28982,0 -20.44203,-9.152221 -20.44203,-20.442041 0,-5.644921 2.29961,-10.766991 5.98733,-14.454712 1.84386,-1.843856 4.04631,-3.340695 6.49341,-4.37656 1.22355,-0.517938 2.3635,-0.804296 3.69514,-1.077506 v -8.532333 h 8.53232 z"
         sodipodi:nodetypes="csssssssc" /><g
         id="g9"
         transform="matrix(-0.22454665,-0.10836431,0.10836431,-0.22454665,166.75791,49.778796)"
         inkscape:transform-center-x="-4.2998008"
         inkscape:transform-center-y="-7.8667001"><path
           d="M 19.253961,63.909087 C 11.38274,63.899646 5.007782,57.511119 5.013055,49.639873 c 0.00527,-7.871247 6.389047,-14.248972 14.260267,-14.245417 7.87122,0.0036 14.252062,6.387178 14.252675,14.258425 -0.0092,7.877132 -6.393951,14.256819 -14.270074,14.256206 z"
           fill="#ca3c32"
           id="path1"
           style="display:inline;stroke-width:0.9809" /><path
           d="M 58.352724,84.503503 C 48.513373,84.490373 40.544326,76.50668 40.550815,66.6659 c 0.0065,-9.840781 7.986389,-17.81203 17.825741,-17.807483 9.839352,0.0045 17.813302,7.982107 17.814169,17.822888 -0.01139,9.846911 -7.992519,17.821839 -17.838,17.820972 z"
           fill="#9259a3"
           id="path2"
           style="display:inline;stroke-width:1.22618" /><path
           d="m 37.814795,24.317631 c -5.90489,0 -10.691624,-4.786735 -10.691624,-10.691624 0,-5.90489 4.786734,-10.6923603 10.691624,-10.6923603 5.90489,0 10.691625,4.7874703 10.691625,10.6923603 A 10.681326,10.681326 0 0 1 37.814795,24.317631 Z"
           fill="#399746"
           id="path3"
           style="display:inline;stroke-width:0.735629" /></g></g></g></svg>
